<?xml version="1.0" standalone="no"?><!DOCTYPE svg PUBLIC "-//W3C//DTD SVG 1.1//EN" "http://www.w3.org/Graphics/SVG/1.1/DTD/svg11.dtd"><svg t="1753492094076" class="icon" viewBox="0 0 1024 1024" version="1.1" xmlns="http://www.w3.org/2000/svg" p-id="1656" xmlns:xlink="http://www.w3.org/1999/xlink" width="200" height="200"><path d="M768 85.333333a85.333333 85.333333 0 0 1 85.333333 85.333334v727.978666a42.666667 42.666667 0 0 1-62.677333 37.717334l-258.688-137.301334a42.666667 42.666667 0 0 0-40.021333 0L233.386667 936.32A42.666667 42.666667 0 0 1 170.666667 898.645333V170.666667a85.333333 85.333333 0 0 1 85.333333-85.333334h512z m0 85.333334H256v656.981333l195.925333-103.978667a128 128 0 0 1 111.872-3.968l8.149334 3.968L768 827.733333V170.666667z m-256 106.666666a42.666667 42.666667 0 0 1 42.666667 42.666667v85.333333h85.333333a42.666667 42.666667 0 0 1 0 85.333334h-85.333333v85.333333a42.666667 42.666667 0 0 1-85.333334 0v-85.333333H384a42.666667 42.666667 0 0 1 0-85.333334h85.333333v-85.333333a42.666667 42.666667 0 0 1 42.666667-42.666667z" fill="#2c2c2c" p-id="1657"></path></svg>